<svg xmlns:dc="http://purl.org/dc/elements/1.1/" xmlns:cc="http://creativecommons.org/ns#" xmlns:rdf="http://www.w3.org/1999/02/22-rdf-syntax-ns#" xmlns:svg="http://www.w3.org/2000/svg" xmlns="http://www.w3.org/2000/svg" id="svg877" version="1.1" viewBox="0 0 5.291666 5.2916698" height="5.2916698mm" width="5.291666mm" style="
    margin-right: 10px;
">
  <defs id="defs871"></defs>
  <metadata id="metadata874">
    <rdf:rdf>
      <cc:work rdf:about="">
        <dc:format>image/svg+xml</dc:format>
        <dc:type rdf:resource="http://purl.org/dc/dcmitype/StillImage"></dc:type>
        <dc:title></dc:title>
      </cc:work>
    </rdf:rdf>
  </metadata>
  <g transform="translate(-33.618699,-101.5082)" id="layer1">
    <path style="color:#000000;font-style:normal;font-variant:normal;font-weight:normal;font-stretch:normal;font-size:medium;line-height:normal;font-family:'Bitstream Vera Sans';-inkscape-font-specification:'Bitstream Vera Sans';text-indent:0;text-align:start;text-decoration:none;text-decoration-line:none;letter-spacing:normal;word-spacing:normal;text-transform:none;writing-mode:lr-tb;direction:ltr;text-anchor:start;display:inline;overflow:visible;visibility:visible;fill:#ffffff;fill-opacity:1;stroke:none;stroke-width:0.60147113;marker:none;enable-background:accumulate" id="path20" d="m 36.264497,106.79987 c -1.457671,0 -2.645798,-1.18812 -2.645798,-2.6458 0,-1.4577 1.188126,-2.64587 2.645798,-2.64587 1.457694,0 2.645868,1.18817 2.645868,2.64587 0,1.45768 -1.188175,2.6458 -2.645868,2.6458 z m 0,-0.60148 c 1.132646,0 2.04439,-0.91169 2.04439,-2.04432 0,-1.13265 -0.911746,-2.04439 -2.04439,-2.04439 -1.132616,0 -2.04432,0.91174 -2.04432,2.04439 0,1.13263 0.911703,2.04432 2.04432,2.04432 z"></path>
    <path style="fill:#ffffff;fill-opacity:1;fill-rule:nonzero;stroke:none;stroke-width:0.00221412" id="path22" d="m 37.079006,105.95979 0.968587,-2.68055 -0.0784,-0.0461 c -0.23525,-0.21217 -0.336745,-0.34595 -0.585833,-0.44282 -0.383153,-0.14901 -0.701122,0.14299 -1.028634,0.23065 -0.503224,0.13466 -0.966439,0.0995 -1.390812,-0.18192 -0.0456,-0.0302 -0.06126,-0.0599 -0.09687,-0.10149 -0.299831,0.33214 -0.531459,0.75966 -0.576164,1.25392 -0.0013,0.0144 0.0023,0.0226 0.0046,0.0369 0.101486,0.083 0.832317,0.76903 1.851727,0.40463 0.41229,-0.14738 0.687305,0.0184 1.042494,0.23986 0.05779,0.036 0.05425,0.0355 0.08764,0.06 l -0.438219,1.32847 0.115334,-0.0323 0.124543,-0.0692"></path>
    <path style="fill:#ffffff;fill-opacity:1;fill-rule:nonzero;stroke:none;stroke-width:0.00221412" id="path24" d="m 36.760727,104.53905 -0.577972,1.59649 c -0.02854,10e-4 -0.04477,10e-4 -0.0732,-0.001 -0.0507,-0.005 -0.07953,-0.011 -0.127621,-0.0277 l 0.294455,-0.87106 -0.04614,-0.0323 c -0.170664,-0.0646 -0.247738,-0.11956 -0.475101,-0.0784 -0.484338,0.0876 -1.11761,-0.13871 -1.354467,-0.63395 -0.05073,-0.1061 -0.07894,-0.15483 -0.09596,-0.26248 -0.007,-0.0443 -0.0093,-0.0698 -0.0092,-0.11472 0.465794,0.38564 0.936812,0.58084 1.579589,0.47146 0.302028,-0.0514 0.494567,-0.20935 0.779546,-0.0969 0.04267,0.0168 0.06634,0.0279 0.1061,0.0507"></path>
  </g>
</svg>
